<?xml version="1.0" encoding="utf-8"?>
<!-- Svg Vector Icons : http://www.onlinewebfonts.com/icon -->
<!DOCTYPE svg PUBLIC "-//W3C//DTD SVG 1.1//EN" "http://www.w3.org/Graphics/SVG/1.1/DTD/svg11.dtd">
<svg version="1.1" xmlns="http://www.w3.org/2000/svg" xmlns:xlink="http://www.w3.org/1999/xlink" x="0px" y="0px" viewBox="0 0 1000 1000" enable-background="new 0 0 1000 1000" xml:space="preserve">
<metadata> Svg Vector Icons : http://www.onlinewebfonts.com/icon </metadata>
<g><path d="M393.9,770.4L720.7,500L393.9,229.7V770.4z M501.1,7.8C218.3,7.8,10,217.3,10,500.2c0,282.9,199.9,492,482.8,492c282.8,0,497.2-209.2,497.2-492C990,217.3,784,7.8,501.1,7.8z M501.1,929.3C264,929.3,71.9,737.2,71.9,500.1C71.9,263,264,70.9,501.1,70.9c237.1,0,429.2,192.1,429.2,429.2C930.4,737.2,738.2,929.3,501.1,929.3z"/></g>
</svg>